<svg xmlns="http://www.w3.org/2000/svg" width="127.168" height="114.11" viewBox="0 0 127.168 114.11">
  <g id="Group_3" data-name="Group 3" transform="translate(-841.68 -341)" style="&#10;    fill: #000;&#10;">
    <path id="Path_20" data-name="Path 20" d="M75.224,38.612a11.642,11.642,0,1,0-4.5,0A21.192,21.192,0,0,0,51.79,59.692H94.173A21.21,21.21,0,0,0,75.224,38.612Z" transform="translate(832.292 325.452)"/>
    <path id="Path_21" data-name="Path 21" d="M52.553,76.052a11.642,11.642,0,1,0-4.5,0A21.21,21.21,0,0,0,29.1,97.132H71.5A21.21,21.21,0,0,0,52.553,76.052Z" transform="translate(812.58 357.978)"/>
    <path id="Path_22" data-name="Path 22" d="M97.885,76.052a11.642,11.642,0,1,0-4.5,0A21.21,21.21,0,0,0,74.47,97.132h42.383A21.21,21.21,0,0,0,97.885,76.052Z" transform="translate(851.995 357.978)"/>
    <path id="Path_26" data-name="Path 26" d="M40.45,97.336,82.833,27.37l42.383,69.966" transform="translate(822.44 335.723)" fill="none" stroke="#000" stroke-miterlimit="10" stroke-width="1"/>
  </g>
</svg>